<?xml version="1.0" encoding="UTF-8"?><svg xmlns="http://www.w3.org/2000/svg" xmlns:xlink="http://www.w3.org/1999/xlink" fill-opacity="1" color-rendering="auto" color-interpolation="auto" text-rendering="auto" stroke="black" stroke-linecap="square" width="512" stroke-miterlimit="10" shape-rendering="auto" stroke-opacity="1" fill="black" stroke-dasharray="none" font-weight="normal" stroke-width="1" height="248" font-family="'Dialog'" font-style="normal" stroke-linejoin="miter" font-size="12px" stroke-dashoffset="0" image-rendering="auto">
  <!--Generated by ySVG 2.5-->
  <defs id="genericDefs"/>
  <g>
    <defs id="defs1">
      <clipPath clipPathUnits="userSpaceOnUse" id="clipPath1">
        <path d="M0 0 L512 0 L512 248 L0 248 L0 0 Z"/>
      </clipPath>
      <clipPath clipPathUnits="userSpaceOnUse" id="clipPath2">
        <path d="M-22 22 L490 22 L490 270 L-22 270 L-22 22 Z"/>
      </clipPath>
      <clipPath clipPathUnits="userSpaceOnUse" id="clipPath3">
        <path d="M-180.4097 354.2441 L-180.4097 -157.7559 L67.5903 -157.7559 L67.5903 354.2441 L-180.4097 354.2441 Z"/>
      </clipPath>
      <clipPath clipPathUnits="userSpaceOnUse" id="clipPath4">
        <path d="M-180.4097 400.2441 L-180.4097 -111.7559 L67.5903 -111.7559 L67.5903 400.2441 L-180.4097 400.2441 Z"/>
      </clipPath>
      <clipPath clipPathUnits="userSpaceOnUse" id="clipPath5">
        <path d="M-180.4097 446.2441 L-180.4097 -65.7559 L67.5903 -65.7559 L67.5903 446.2441 L-180.4097 446.2441 Z"/>
      </clipPath>
      <clipPath clipPathUnits="userSpaceOnUse" id="clipPath6">
        <path d="M-180.4097 492.2441 L-180.4097 -19.7559 L67.5903 -19.7559 L67.5903 492.2441 L-180.4097 492.2441 Z"/>
      </clipPath>
      <clipPath clipPathUnits="userSpaceOnUse" id="clipPath7">
        <path d="M-9.98 -125.0106 L502.02 -125.0106 L502.02 122.9894 L-9.98 122.9894 L-9.98 -125.0106 Z"/>
      </clipPath>
      <clipPath clipPathUnits="userSpaceOnUse" id="clipPath8">
        <path d="M-10 -59.4665 L502 -59.4665 L502 188.5335 L-10 188.5335 L-10 -59.4665 Z"/>
      </clipPath>
    </defs>
    <g fill="white" text-rendering="geometricPrecision" shape-rendering="geometricPrecision" transform="translate(22,-22)" stroke="white">
      <rect x="-22" width="512" height="248" y="22" clip-path="url(#clipPath2)" stroke="none"/>
    </g>
    <g text-rendering="geometricPrecision" stroke-miterlimit="1.45" shape-rendering="geometricPrecision" transform="matrix(1,0,0,1,22,-22)" stroke-linecap="butt">
      <rect fill="none" x="307" width="168" height="88" y="97" clip-path="url(#clipPath2)"/>
      <text x="349.916" font-size="14px" y="146.291" clip-path="url(#clipPath2)" font-family="sans-serif" stroke="none" font-weight="bold" xml:space="preserve">Kubernetes</text>
      <rect fill="none" x="307" width="168" height="30" y="37" clip-path="url(#clipPath2)"/>
      <text x="325.5767" font-size="14px" y="57.291" clip-path="url(#clipPath2)" font-family="sans-serif" stroke="none" font-weight="bold" xml:space="preserve">Ingress Controller</text>
      <rect fill="none" x="307" width="30" height="56" y="195" clip-path="url(#clipPath2)"/>
    </g>
    <g font-size="14px" stroke-linecap="butt" transform="matrix(0,1,-1,0,354.2441,180.4097)" text-rendering="geometricPrecision" font-family="sans-serif" shape-rendering="geometricPrecision" font-weight="bold" stroke-miterlimit="1.45">
      <text x="2" xml:space="preserve" y="15.5352" clip-path="url(#clipPath3)" stroke="none">Node</text>
    </g>
    <g text-rendering="geometricPrecision" stroke-miterlimit="1.45" shape-rendering="geometricPrecision" transform="matrix(1,0,0,1,22,-22)" stroke-linecap="butt">
      <rect fill="none" x="353" width="30" height="56" y="195" clip-path="url(#clipPath2)"/>
    </g>
    <g font-size="14px" stroke-linecap="butt" transform="matrix(0,1,-1,0,400.2441,180.4097)" text-rendering="geometricPrecision" font-family="sans-serif" shape-rendering="geometricPrecision" font-weight="bold" stroke-miterlimit="1.45">
      <text x="2" xml:space="preserve" y="15.5352" clip-path="url(#clipPath4)" stroke="none">Node</text>
    </g>
    <g text-rendering="geometricPrecision" stroke-miterlimit="1.45" shape-rendering="geometricPrecision" transform="matrix(1,0,0,1,22,-22)" stroke-linecap="butt">
      <rect fill="none" x="399" width="30" height="56" y="195" clip-path="url(#clipPath2)"/>
    </g>
    <g font-size="14px" stroke-linecap="butt" transform="matrix(0,1,-1,0,446.2441,180.4097)" text-rendering="geometricPrecision" font-family="sans-serif" shape-rendering="geometricPrecision" font-weight="bold" stroke-miterlimit="1.45">
      <text x="2" xml:space="preserve" y="15.5352" clip-path="url(#clipPath5)" stroke="none">Node</text>
    </g>
    <g text-rendering="geometricPrecision" stroke-miterlimit="1.45" shape-rendering="geometricPrecision" transform="matrix(1,0,0,1,22,-22)" stroke-linecap="butt">
      <rect fill="none" x="445" width="30" height="56" y="195" clip-path="url(#clipPath2)"/>
    </g>
    <g font-size="14px" stroke-linecap="butt" transform="matrix(0,1,-1,0,492.2441,180.4097)" text-rendering="geometricPrecision" font-family="sans-serif" shape-rendering="geometricPrecision" font-weight="bold" stroke-miterlimit="1.45">
      <text x="2" xml:space="preserve" y="15.5352" clip-path="url(#clipPath6)" stroke="none">Node</text>
    </g>
    <g fill="rgb(153,204,255)" text-rendering="geometricPrecision" shape-rendering="geometricPrecision" transform="matrix(1,0,0,1,22,-22)" stroke="rgb(153,204,255)">
      <circle r="15" clip-path="url(#clipPath2)" cx="328" cy="141" stroke="none"/>
    </g>
    <g text-rendering="geometricPrecision" stroke-miterlimit="1.45" shape-rendering="geometricPrecision" transform="matrix(1,0,0,1,22,-22)" stroke-linecap="butt">
      <circle fill="none" r="15" clip-path="url(#clipPath2)" cx="328" cy="141"/>
      <text x="313.5693" font-size="14px" y="146.291" clip-path="url(#clipPath2)" font-family="sans-serif" stroke="none" font-weight="bold" xml:space="preserve">App</text>
    </g>
    <g fill="rgb(153,204,255)" text-rendering="geometricPrecision" shape-rendering="geometricPrecision" transform="matrix(1,0,0,1,22,-22)" stroke="rgb(153,204,255)">
      <rect x="158" width="60" height="56" y="78" clip-path="url(#clipPath2)" stroke="none"/>
    </g>
    <g text-rendering="geometricPrecision" stroke-miterlimit="1.45" shape-rendering="geometricPrecision" transform="matrix(1,0,0,1,22,-22)" stroke-linecap="butt">
      <rect fill="none" x="158" width="60" height="56" y="78" clip-path="url(#clipPath2)"/>
      <text x="162.5396" font-size="14px" y="103.0469" clip-path="url(#clipPath2)" font-family="sans-serif" stroke="none" font-weight="bold" xml:space="preserve">Docker</text>
      <text x="166.0566" font-size="14px" y="119.5352" clip-path="url(#clipPath2)" font-family="sans-serif" stroke="none" font-weight="bold" xml:space="preserve">Image</text>
    </g>
    <g fill="rgb(153,204,255)" text-rendering="geometricPrecision" shape-rendering="geometricPrecision" transform="matrix(1,0,0,1,22,-22)" stroke="rgb(153,204,255)">
      <rect x="143" width="90" height="19" y="169" clip-path="url(#clipPath2)" stroke="none"/>
    </g>
    <g text-rendering="geometricPrecision" stroke-miterlimit="1.45" shape-rendering="geometricPrecision" transform="matrix(1,0,0,1,22,-22)" stroke-linecap="butt">
      <rect fill="none" x="143" width="90" height="19" y="169" clip-path="url(#clipPath2)"/>
      <text x="162.4609" font-size="14px" y="183.791" clip-path="url(#clipPath2)" font-family="sans-serif" stroke="none" font-weight="bold" xml:space="preserve">Service</text>
    </g>
    <g fill="rgb(153,204,255)" text-rendering="geometricPrecision" shape-rendering="geometricPrecision" transform="matrix(1,0,0,1,22,-22)" stroke="rgb(153,204,255)">
      <rect x="143" width="90" height="19" y="195" clip-path="url(#clipPath2)" stroke="none"/>
    </g>
    <g text-rendering="geometricPrecision" stroke-miterlimit="1.45" shape-rendering="geometricPrecision" transform="matrix(1,0,0,1,22,-22)" stroke-linecap="butt">
      <rect fill="none" x="143" width="90" height="19" y="195" clip-path="url(#clipPath2)"/>
      <text x="144.5576" font-size="14px" y="209.791" clip-path="url(#clipPath2)" font-family="sans-serif" stroke="none" font-weight="bold" xml:space="preserve">Deployment</text>
      <text x="163.3359" font-size="14px" y="164.791" clip-path="url(#clipPath2)" font-family="sans-serif" stroke="none" xml:space="preserve">Config:</text>
    </g>
    <g text-rendering="geometricPrecision" shape-rendering="geometricPrecision" transform="matrix(1,0,0,1,9.98,125.0106)">
      <g clip-path="url(#clipPath7)">
        <svg opacity="1" writing-mode="lr-tb" stop-color="rgb(0, 0, 0)" shape-rendering="auto" glyph-orientation-horizontal="0deg" color-profile="auto" lighting-color="rgb(255, 255, 255)" color="rgb(0, 0, 0)" font-weight="400" alignment-baseline="auto" font-style="normal" color-interpolation-filters="linearrgb" text-anchor="start" stroke-linecap="butt" color-interpolation="srgb" font-variant="normal" word-spacing="normal" fill-opacity="1" text-rendering="auto" clip-path="none" text-decoration="none" letter-spacing="normal" viewBox="0 0 100 100" glyph-orientation-vertical="auto" display="inline" font-size-adjust="none" data-name="Layer 1" fill="rgb(0, 0, 0)" overflow="visible" font-stretch="normal" stroke-dasharray="none" id="svg1.Layer_1" stroke-miterlimit="4" stop-opacity="1" color-rendering="auto" font-size="12" mask="none" direction="ltr" baseline-shift="baseline" pointer-events="visiblepainted" enable-background="accumulate" fill-rule="nonzero" image-rendering="auto" stroke-dashoffset="0" width="100" marker-end="none" clip="auto" cursor="auto" stroke="none" filter="none" visibility="visible" kerning="auto" stroke-width="1" font-family="&quot;Arial&quot;,&quot;Helvetica&quot;,sans-serif" flood-opacity="1" clip-rule="nonzero" src="none" height="100" unicode-bidi="normal" stroke-linejoin="miter" stroke-opacity="1" flood-color="rgb(0, 0, 0)" dominant-baseline="auto" marker-start="none" marker-mid="none">
  <title>General</title>
  <path fill="#7d7c7c" d="M50,24.51l11.78,9.2v2.48a11.77,11.77,0,0,1-23.54,0V33.71Z"/>
  <path fill="#7d7c7c" d="M56.73,51.22c7.44,0,13.45,4.51,13.45,11.87V77.93H62.43V67.52H61.11V77.93H39.19V67.52H37.86V77.93h-8V63.09c0-7.36,6-11.87,13.46-11.87Z"/>
  <path fill="#d2d3d3" d="M50,22A11.68,11.68,0,1,1,38.23,33.71,11.73,11.73,0,0,1,50,22Z"/>
  <path fill="#d2d3d3" d="M56.73,48.74c7.44,0,13.45,4.51,13.45,11.87V75.45H62.43V65H61.11V75.45H39.19V65H37.86V75.45h-8V60.61c0-7.36,6-11.87,13.46-11.87Z"/>
</svg>
      </g>
    </g>
    <g text-rendering="geometricPrecision" shape-rendering="geometricPrecision" transform="matrix(1,0,0,1,10,59.4665)">
      <g clip-path="url(#clipPath8)">
        <svg opacity="1" writing-mode="lr-tb" stop-color="rgb(0, 0, 0)" shape-rendering="auto" glyph-orientation-horizontal="0deg" color-profile="auto" lighting-color="rgb(255, 255, 255)" color="rgb(0, 0, 0)" font-weight="400" alignment-baseline="auto" font-style="normal" color-interpolation-filters="linearrgb" text-anchor="start" stroke-linecap="butt" color-interpolation="srgb" font-variant="normal" word-spacing="normal" fill-opacity="1" text-rendering="auto" clip-path="none" text-decoration="none" letter-spacing="normal" viewBox="0 0 100 100" glyph-orientation-vertical="auto" display="inline" font-size-adjust="none" data-name="Layer 1" fill="rgb(0, 0, 0)" overflow="visible" font-stretch="normal" stroke-dasharray="none" id="svg2.Layer_1" stroke-miterlimit="4" stop-opacity="1" color-rendering="auto" font-size="12" mask="none" direction="ltr" baseline-shift="baseline" pointer-events="visiblepainted" enable-background="accumulate" fill-rule="nonzero" image-rendering="auto" stroke-dashoffset="0" width="100" marker-end="none" clip="auto" cursor="auto" stroke="none" filter="none" visibility="visible" kerning="auto" stroke-width="1" font-family="&quot;Arial&quot;,&quot;Helvetica&quot;,sans-serif" flood-opacity="1" clip-rule="nonzero" src="none" height="100" unicode-bidi="normal" stroke-linejoin="miter" stroke-opacity="1" flood-color="rgb(0, 0, 0)" dominant-baseline="auto" marker-start="none" marker-mid="none">
  <title>General</title>
  <path fill="none" d="M71.68,70.3H54.07A1.7,1.7,0,0,0,52.36,72h21A1.69,1.69,0,0,0,71.68,70.3Z"/>
  <path fill="none" d="M54.07,73.68H71.68A1.69,1.69,0,0,0,73.37,72h-21A1.7,1.7,0,0,0,54.07,73.68Z"/>
  <path fill="#7d7c7c" d="M73.37,72a1.69,1.69,0,0,1-1.69,1.69H54.07A1.7,1.7,0,0,1,52.36,72H22.2v1.69a4.23,4.23,0,0,0,4.23,4.23H73.55a4.24,4.24,0,0,0,4.25-4.23V72Z"/>
  <path fill="#7d7c7c" d="M75.94,51.88l-2.73,3a1.93,1.93,0,0,1-1.93,1.92H28.66a1.93,1.93,0,0,1-1.92-1.92l-2.3-3H22.24v3a6.41,6.41,0,0,0,6.42,6.39H71.28a6.42,6.42,0,0,0,6.43-6.39v-3Z"/>
  <path fill="#d2d3d3" d="M73.55,63.59a4.22,4.22,0,0,1,4.25,4.21V71.2a4.24,4.24,0,0,1-4.25,4.23H26.44A4.23,4.23,0,0,1,22.2,71.2V67.81a4.22,4.22,0,0,1,4.23-4.21ZM71.68,71.2a1.69,1.69,0,1,0,0-3.38H54.07a1.69,1.69,0,1,0,0,3.38H71.68"/>
  <path fill="#d2d3d3" d="M71.28,22.15a6.42,6.42,0,0,1,6.43,6.38V52.39a6.42,6.42,0,0,1-6.43,6.39H28.66a6.41,6.41,0,0,1-6.42-6.39V28.54a6.41,6.41,0,0,1,6.42-6.38Zm1.93,30.24V28.54a1.92,1.92,0,0,0-1.93-1.92H28.66a1.92,1.92,0,0,0-1.92,1.92V52.39a1.93,1.93,0,0,0,1.92,1.92H71.28a1.93,1.93,0,0,0,1.93-1.92"/>
</svg>
      </g>
    </g>
    <g font-size="14px" stroke-linecap="butt" transform="matrix(1,0,0,1,22,-22)" text-rendering="geometricPrecision" font-family="sans-serif" shape-rendering="geometricPrecision" stroke-miterlimit="1.45">
      <text x="3.8408" xml:space="preserve" y="249.3425" clip-path="url(#clipPath2)" stroke="none">Developer</text>
      <path fill="none" d="M80 141 L299 141" clip-path="url(#clipPath2)"/>
      <path d="M307 141 L295 136 L298 141 L295 146 Z" stroke="none" clip-path="url(#clipPath2)"/>
    </g>
  </g>
</svg>
